<?xml version="1.0" encoding="UTF-8" standalone="no"?>
<svg
   xmlns:dc="http://purl.org/dc/elements/1.1/"
   xmlns:cc="http://creativecommons.org/ns#"
   xmlns:rdf="http://www.w3.org/1999/02/22-rdf-syntax-ns#"
   xmlns:svg="http://www.w3.org/2000/svg"
   xmlns="http://www.w3.org/2000/svg"
   width="194.69795mm"
   height="194.69795mm"
   viewBox="0 0 194.69795 194.69795"
   version="1.1"
   id="svg8">
  <defs
     id="defs2" />
  <metadata
     id="metadata5">
    <rdf:RDF>
      <cc:Work
         rdf:about="">
        <dc:format>image/svg+xml</dc:format>
        <dc:type
           rdf:resource="http://purl.org/dc/dcmitype/StillImage" />
        <dc:title></dc:title>
      </cc:Work>
    </rdf:RDF>
  </metadata>
  <g
     id="layer1"
     transform="translate(-8.4957275,-63.692406)">
    <path
       style="fill:#ffe900;fill-opacity:1;stroke-width:10;stroke-dasharray:30, 10"
       id="path10"
       d="m 160.62705,169.53 c -0.6958,5.59156 23.11959,26.42661 20.55332,31.44299 -2.56627,5.01637 -33.39748,-2.10464 -37.52469,1.73149 -4.12721,3.83613 0.72393,35.10495 -4.46641,37.29815 -5.19034,2.1932 -24.23112,-23.07974 -29.85856,-22.79401 -5.62745,0.28573 -22.010463,27.35729 -27.396256,25.70109 -5.385793,-1.6562 -3.726749,-33.25557 -8.221285,-36.65393 -4.494536,-3.39837 -34.445917,6.80884 -37.507088,2.0782 -3.061172,-4.73065 18.521411,-27.87075 17.262826,-33.36309 -1.258585,-5.49233 -30.763745,-16.92552 -30.067939,-22.51709 0.695805,-5.59157 32.103198,-9.4449 34.669469,-14.46128 2.566272,-5.01637 -12.686876,-32.74026 -8.559668,-36.57639 4.127208,-3.836134 30.663541,13.40032 35.853883,11.20713 5.190342,-2.1932 11.326324,-33.235467 16.953768,-33.521197 5.62744,-0.285731 14.87607,29.975387 20.26186,31.631587 5.3858,1.6562 30.03982,-18.179419 34.53435,-14.78105 4.49454,3.398369 -7.87207,32.52463 -4.8109,37.25528 3.06117,4.73064 34.69733,5.38297 35.95592,10.87531 1.25858,5.49233 -26.93679,19.85524 -27.6326,25.44681 z" />
    <path
       style="fill:#ff0000;fill-opacity:1;stroke-width:6.839;stroke-dasharray:20.517, 6.839"
       id="path835"
       d="m 129.04456,165.87669 c -0.96754,7.77529 27.69327,25.48763 22.96771,31.73746 -4.72556,6.24982 -29.57777,-16.49962 -36.79514,-13.4499 -7.21737,3.04973 -8.2263,36.7269 -16.001593,35.75935 -7.77529,-0.96754 -0.499794,-33.86491 -6.74962,-38.59047 -6.249826,-4.72556 -35.919573,11.23926 -38.9693,4.02189 -3.049726,-7.21738 29.077975,-17.36529 30.04552,-25.14058 0.967544,-7.77529 -27.69327,-25.48764 -22.967706,-31.73746 4.725563,-6.24983 29.577768,16.49962 36.795139,13.44989 7.21737,-3.04973 8.2263,-36.72689 16.00159,-35.75935 7.77529,0.96755 0.4998,33.86491 6.74962,38.59048 6.24983,4.72556 35.91958,-11.23926 38.9693,-4.02189 3.04973,7.21737 -29.07797,17.36529 -30.04552,25.14058 z"
       transform="matrix(0.72351486,0.26887326,-0.26887326,0.72351486,57.608035,7.3819393)" />
  </g>
</svg>
